# xmcd
#
# Track frame offsets:
#	150
#	14214
#	26742
#	40409
#	55250
#	67932
#	82937
#	97966
#	113315
#	125663
#	140169
#	154523
#
# Disc length: 2246 seconds
#
# Revision: 0
# Processed by: cddbd v1.5.2PL0 Copyright (c) Steve Scherf et al.
# Submitted via: audiograbber 1.83.01
#
DISCID=9a08c40c
DTITLE=Duke Ellington - Duke Ellington's Greatest Hits
DYEAR=1968
DGENRE=Jazz
TTITLE0=The New East St. Louis Toodle-O
TTITLE1=The New Black And Tan Fantasy
TTITLE2=The Creole Love Call
TTITLE3=The Mooche
TTITLE4=Mood Indigo
TTITLE5=Sophisticated Lady
TTITLE6=Solitude
TTITLE7=In A Sentimental Mood
TTITLE8=Caravan
TTITLE9=I Let A Song Go Out Of My Heart
TTITLE10=Do Nothing Till You Hear From Me
TTITLE11=Don't Get Around Much Anymore
EXTD=
EXTT0=
EXTT1=
EXTT2=
EXTT3=
EXTT4=
EXTT5=
EXTT6=
EXTT7=
EXTT8=
EXTT9=
EXTT10=
EXTT11=
PLAYORDER=
